<mxfile host="app.diagrams.net" modified="2020-10-05T19:20:03.199Z" agent="5.0 (Macintosh; Intel Mac OS X 10_15_6) AppleWebKit/537.36 (KHTML, like Gecko) Chrome/85.0.4183.121 Safari/537.36" etag="sO5voV0dSZy1loIDSweU" version="13.7.7" type="github">
  <diagram id="R2lEEEUBdFMjLlhIrx00" name="Page-1">
    <mxGraphModel dx="1577" dy="965" grid="1" gridSize="10" guides="1" tooltips="1" connect="1" arrows="1" fold="1" page="1" pageScale="1" pageWidth="1169" pageHeight="827" background="#66B2FF" math="0" shadow="0" extFonts="Permanent Marker^https://fonts.googleapis.com/css?family=Permanent+Marker">
      <root>
        <mxCell id="0" />
        <mxCell id="1" parent="0" />
        <mxCell id="UYrq1aZwp3QHKqOVtOla-1" value="Nominativo" style="rounded=1;arcSize=10;whiteSpace=wrap;html=1;align=center;fontSize=20;" vertex="1" parent="1">
          <mxGeometry x="241" y="324" width="160" height="70" as="geometry" />
        </mxCell>
        <mxCell id="UYrq1aZwp3QHKqOVtOla-2" value="idNominativo" style="ellipse;whiteSpace=wrap;html=1;align=center;fontStyle=4;fontSize=13;" vertex="1" parent="1">
          <mxGeometry x="91" y="264" width="100" height="40" as="geometry" />
        </mxCell>
        <mxCell id="UYrq1aZwp3QHKqOVtOla-4" value="" style="endArrow=none;html=1;rounded=0;fontSize=13;exitX=0.5;exitY=1;exitDx=0;exitDy=0;entryX=0;entryY=0;entryDx=0;entryDy=0;" edge="1" parent="1" source="UYrq1aZwp3QHKqOVtOla-2" target="UYrq1aZwp3QHKqOVtOla-1">
          <mxGeometry relative="1" as="geometry">
            <mxPoint x="411" y="374" as="sourcePoint" />
            <mxPoint x="571" y="374" as="targetPoint" />
          </mxGeometry>
        </mxCell>
        <mxCell id="UYrq1aZwp3QHKqOVtOla-6" value="Cognome/SocietÃ " style="ellipse;whiteSpace=wrap;html=1;align=center;fontSize=13;" vertex="1" parent="1">
          <mxGeometry x="200" y="220" width="120" height="50" as="geometry" />
        </mxCell>
        <mxCell id="UYrq1aZwp3QHKqOVtOla-7" value="Nome" style="ellipse;whiteSpace=wrap;html=1;align=center;fontSize=13;" vertex="1" parent="1">
          <mxGeometry x="351" y="244" width="120" height="50" as="geometry" />
        </mxCell>
        <mxCell id="UYrq1aZwp3QHKqOVtOla-8" value="" style="endArrow=none;html=1;rounded=0;fontSize=13;exitX=0.5;exitY=1;exitDx=0;exitDy=0;entryX=0.25;entryY=0;entryDx=0;entryDy=0;" edge="1" parent="1" source="UYrq1aZwp3QHKqOVtOla-6" target="UYrq1aZwp3QHKqOVtOla-1">
          <mxGeometry relative="1" as="geometry">
            <mxPoint x="411" y="374" as="sourcePoint" />
            <mxPoint x="571" y="374" as="targetPoint" />
          </mxGeometry>
        </mxCell>
        <mxCell id="UYrq1aZwp3QHKqOVtOla-9" value="" style="endArrow=none;html=1;rounded=0;fontSize=13;exitX=0.5;exitY=1;exitDx=0;exitDy=0;entryX=0.5;entryY=0;entryDx=0;entryDy=0;" edge="1" parent="1" source="UYrq1aZwp3QHKqOVtOla-7" target="UYrq1aZwp3QHKqOVtOla-1">
          <mxGeometry relative="1" as="geometry">
            <mxPoint x="411" y="374" as="sourcePoint" />
            <mxPoint x="571" y="374" as="targetPoint" />
          </mxGeometry>
        </mxCell>
        <mxCell id="UYrq1aZwp3QHKqOVtOla-11" value="Contatti" style="rounded=1;arcSize=10;whiteSpace=wrap;html=1;align=center;fontSize=20;" vertex="1" parent="1">
          <mxGeometry x="861" y="324" width="160" height="70" as="geometry" />
        </mxCell>
        <mxCell id="UYrq1aZwp3QHKqOVtOla-12" value="Riferimenti" style="shape=rhombus;perimeter=rhombusPerimeter;whiteSpace=wrap;html=1;align=center;fontSize=13;" vertex="1" parent="1">
          <mxGeometry x="561" y="334" width="120" height="60" as="geometry" />
        </mxCell>
        <mxCell id="UYrq1aZwp3QHKqOVtOla-15" value="idContatto" style="ellipse;whiteSpace=wrap;html=1;align=center;fontStyle=4;fontSize=13;" vertex="1" parent="1">
          <mxGeometry x="731" y="254" width="100" height="40" as="geometry" />
        </mxCell>
        <mxCell id="UYrq1aZwp3QHKqOVtOla-16" value="Tipo riferimento" style="ellipse;whiteSpace=wrap;html=1;align=center;fontSize=13;" vertex="1" parent="1">
          <mxGeometry x="616" y="434" width="100" height="40" as="geometry" />
        </mxCell>
        <mxCell id="UYrq1aZwp3QHKqOVtOla-17" value="" style="endArrow=none;html=1;rounded=0;fontSize=13;exitX=1;exitY=1;exitDx=0;exitDy=0;" edge="1" parent="1" source="UYrq1aZwp3QHKqOVtOla-12">
          <mxGeometry relative="1" as="geometry">
            <mxPoint x="441" y="454" as="sourcePoint" />
            <mxPoint x="671" y="434" as="targetPoint" />
          </mxGeometry>
        </mxCell>
        <mxCell id="UYrq1aZwp3QHKqOVtOla-18" value="" style="endArrow=none;html=1;rounded=0;fontSize=13;exitX=0.5;exitY=1;exitDx=0;exitDy=0;entryX=0;entryY=0;entryDx=0;entryDy=0;" edge="1" parent="1" source="UYrq1aZwp3QHKqOVtOla-15" target="UYrq1aZwp3QHKqOVtOla-11">
          <mxGeometry relative="1" as="geometry">
            <mxPoint x="441" y="454" as="sourcePoint" />
            <mxPoint x="601" y="454" as="targetPoint" />
          </mxGeometry>
        </mxCell>
        <mxCell id="UYrq1aZwp3QHKqOVtOla-19" value="Nome Contatto" style="ellipse;whiteSpace=wrap;html=1;align=center;fontSize=13;" vertex="1" parent="1">
          <mxGeometry x="851" y="224" width="100" height="40" as="geometry" />
        </mxCell>
        <mxCell id="UYrq1aZwp3QHKqOVtOla-20" value="" style="endArrow=none;html=1;rounded=0;fontSize=13;exitX=0.5;exitY=1;exitDx=0;exitDy=0;entryX=0.25;entryY=0;entryDx=0;entryDy=0;" edge="1" parent="1" source="UYrq1aZwp3QHKqOVtOla-19" target="UYrq1aZwp3QHKqOVtOla-11">
          <mxGeometry relative="1" as="geometry">
            <mxPoint x="441" y="454" as="sourcePoint" />
            <mxPoint x="601" y="454" as="targetPoint" />
          </mxGeometry>
        </mxCell>
        <mxCell id="UYrq1aZwp3QHKqOVtOla-21" value="Contatto" style="ellipse;whiteSpace=wrap;html=1;align=center;fontSize=13;" vertex="1" parent="1">
          <mxGeometry x="991" y="224" width="100" height="40" as="geometry" />
        </mxCell>
        <mxCell id="UYrq1aZwp3QHKqOVtOla-22" value="" style="endArrow=none;html=1;rounded=0;fontSize=13;entryX=0.5;entryY=1;entryDx=0;entryDy=0;exitX=0.5;exitY=0;exitDx=0;exitDy=0;" edge="1" parent="1" source="UYrq1aZwp3QHKqOVtOla-11" target="UYrq1aZwp3QHKqOVtOla-21">
          <mxGeometry relative="1" as="geometry">
            <mxPoint x="441" y="454" as="sourcePoint" />
            <mxPoint x="601" y="454" as="targetPoint" />
          </mxGeometry>
        </mxCell>
        <mxCell id="UYrq1aZwp3QHKqOVtOla-23" value="idRiferimento" style="ellipse;whiteSpace=wrap;html=1;align=center;fontStyle=4;fontSize=13;" vertex="1" parent="1">
          <mxGeometry x="481" y="424" width="100" height="40" as="geometry" />
        </mxCell>
        <mxCell id="UYrq1aZwp3QHKqOVtOla-24" value="" style="endArrow=none;html=1;rounded=0;fontSize=13;exitX=0;exitY=1;exitDx=0;exitDy=0;entryX=0.5;entryY=0;entryDx=0;entryDy=0;" edge="1" parent="1" source="UYrq1aZwp3QHKqOVtOla-12" target="UYrq1aZwp3QHKqOVtOla-23">
          <mxGeometry relative="1" as="geometry">
            <mxPoint x="441" y="454" as="sourcePoint" />
            <mxPoint x="601" y="454" as="targetPoint" />
          </mxGeometry>
        </mxCell>
        <mxCell id="UYrq1aZwp3QHKqOVtOla-25" value="" style="endArrow=none;html=1;rounded=0;fontSize=13;exitX=1;exitY=0.5;exitDx=0;exitDy=0;entryX=0;entryY=0.5;entryDx=0;entryDy=0;" edge="1" parent="1" source="UYrq1aZwp3QHKqOVtOla-1" target="UYrq1aZwp3QHKqOVtOla-12">
          <mxGeometry relative="1" as="geometry">
            <mxPoint x="441" y="454" as="sourcePoint" />
            <mxPoint x="601" y="454" as="targetPoint" />
          </mxGeometry>
        </mxCell>
        <mxCell id="UYrq1aZwp3QHKqOVtOla-27" value="" style="endArrow=none;html=1;rounded=0;fontSize=13;exitX=1;exitY=0.5;exitDx=0;exitDy=0;entryX=0;entryY=0.5;entryDx=0;entryDy=0;" edge="1" parent="1" source="UYrq1aZwp3QHKqOVtOla-12" target="UYrq1aZwp3QHKqOVtOla-11">
          <mxGeometry relative="1" as="geometry">
            <mxPoint x="441" y="454" as="sourcePoint" />
            <mxPoint x="601" y="454" as="targetPoint" />
          </mxGeometry>
        </mxCell>
        <mxCell id="UYrq1aZwp3QHKqOVtOla-28" value="Note" style="ellipse;whiteSpace=wrap;html=1;align=center;fontSize=13;" vertex="1" parent="1">
          <mxGeometry x="130" y="419" width="120" height="50" as="geometry" />
        </mxCell>
        <mxCell id="UYrq1aZwp3QHKqOVtOla-29" value="" style="endArrow=none;html=1;rounded=0;fontSize=13;exitX=0.5;exitY=0;exitDx=0;exitDy=0;entryX=0.25;entryY=1;entryDx=0;entryDy=0;" edge="1" parent="1" source="UYrq1aZwp3QHKqOVtOla-28" target="UYrq1aZwp3QHKqOVtOla-1">
          <mxGeometry relative="1" as="geometry">
            <mxPoint x="410" y="400" as="sourcePoint" />
            <mxPoint x="570" y="400" as="targetPoint" />
          </mxGeometry>
        </mxCell>
        <mxCell id="UYrq1aZwp3QHKqOVtOla-30" value="Note" style="ellipse;whiteSpace=wrap;html=1;align=center;fontSize=13;" vertex="1" parent="1">
          <mxGeometry x="991" y="434" width="120" height="50" as="geometry" />
        </mxCell>
        <mxCell id="UYrq1aZwp3QHKqOVtOla-31" value="" style="endArrow=none;html=1;rounded=0;fontSize=13;entryX=0.5;entryY=0;entryDx=0;entryDy=0;exitX=0.75;exitY=1;exitDx=0;exitDy=0;" edge="1" parent="1" source="UYrq1aZwp3QHKqOVtOla-11" target="UYrq1aZwp3QHKqOVtOla-30">
          <mxGeometry relative="1" as="geometry">
            <mxPoint x="410" y="400" as="sourcePoint" />
            <mxPoint x="570" y="400" as="targetPoint" />
          </mxGeometry>
        </mxCell>
      </root>
    </mxGraphModel>
  </diagram>
</mxfile>
